<svg width="240" height="240" viewBox="0 0 240 240" fill="none" xmlns="http://www.w3.org/2000/svg">
  <g opacity="0.12" stroke="#A97A52" stroke-width="2.4">
    <path d="M120 20L145 45L120 70L95 45L120 20Z"/>
    <path d="M120 70L170 120L120 170L70 120L120 70Z"/>
    <path d="M120 170L145 195L120 220L95 195L120 170Z"/>
    <path d="M20 120L45 95L70 120L45 145L20 120Z"/>
    <path d="M170 120L195 95L220 120L195 145L170 120Z"/>
    <path d="M120 0V240"/>
    <path d="M0 120H240"/>
    <path d="M35 35L205 205"/>
    <path d="M205 35L35 205"/>
    <circle cx="120" cy="120" r="24"/>
    <circle cx="120" cy="120" r="58" opacity="0.55"/>
  </g>
</svg>
